<svg width="328" height="252" viewBox="0 0 328 252" fill="none" xmlns="http://www.w3.org/2000/svg">
<path fill-rule="evenodd" clip-rule="evenodd" d="M153.434 11.4272L14.9091 95.4985L41.7155 228.545L160.673 239.974L308.536 228.545L313.091 67.1859L153.434 11.4272Z" fill="#CBD9FE"/>
<path fill-rule="evenodd" clip-rule="evenodd" d="M167.392 164.139L167.383 164.134C167.68 161.484 167.152 161.863 164.252 158.737C164.209 158.691 164.18 158.621 164.121 158.605C162.351 158.14 159.704 157.075 160.088 153.782C160.428 150.869 162.769 151.018 162.773 150.894C162.852 148.436 162.979 146.542 162.979 146.542L180.616 144.759V147.953C180.616 147.953 180.748 155.419 180.007 158.216C179.266 161.013 177.688 160.765 176.929 161.706C176.443 162.306 176.722 164.933 177.05 165.482C177.756 166.663 178.79 167.485 181.416 168.069C184.041 168.654 189.44 171.198 190.445 178.623C191.436 185.96 191.954 190.74 191.954 190.74H149.921C149.921 190.74 150.212 179.6 153.126 173.917C156.169 167.983 166.883 167.531 167.2 165.482C167.273 165.009 167.337 164.556 167.392 164.139Z" fill="#CBD9FE"/>
<path fill-rule="evenodd" clip-rule="evenodd" d="M162.392 150.588C162.028 150.672 161.293 150.889 160.764 151.385C160.274 151.843 159.836 152.566 159.7 153.737C159.291 157.24 162.017 158.441 163.928 158.96C163.941 158.975 163.955 158.992 163.965 159.003C165.124 160.252 165.904 160.94 166.404 161.489C167.073 162.22 167.154 162.672 166.994 164.091C166.991 164.116 166.991 164.144 166.993 164.172C166.942 164.561 166.882 164.984 166.814 165.421C166.789 165.581 166.643 165.705 166.445 165.841C166.007 166.145 165.313 166.42 164.466 166.716C162.377 167.447 159.404 168.279 156.894 169.728C155.17 170.725 153.665 172.012 152.778 173.74C149.835 179.478 149.531 190.73 149.531 190.73C149.528 190.834 149.568 190.937 149.642 191.013C149.715 191.087 149.816 191.13 149.921 191.13H191.954C192.066 191.13 192.172 191.084 192.245 191.001C192.319 190.92 192.354 190.809 192.344 190.697C192.344 190.697 191.825 185.915 190.832 178.57C189.795 170.907 184.21 168.289 181.502 167.687C179.033 167.139 178.049 166.39 177.384 165.282C177.205 164.981 177.063 163.992 177.058 163.135C177.056 162.791 177.076 162.467 177.131 162.22C177.159 162.106 177.184 162.01 177.233 161.951C177.506 161.613 177.908 161.456 178.323 161.215C179.076 160.778 179.901 160.148 180.384 158.315C181.125 155.52 181.011 148.107 181.008 147.948V144.759C181.008 144.65 180.96 144.544 180.88 144.47C180.796 144.394 180.687 144.359 180.579 144.372L162.94 146.155C162.75 146.172 162.602 146.327 162.59 146.516C162.59 146.516 162.471 148.266 162.392 150.588ZM167.403 164.506L167.771 164.177C167.969 162.417 167.812 161.868 166.981 160.96C166.481 160.414 165.699 159.723 164.538 158.471C164.501 158.431 164.47 158.38 164.432 158.345C164.373 158.289 164.3 158.249 164.221 158.229C162.594 157.799 160.123 156.853 160.476 153.828C160.584 152.9 160.91 152.318 161.298 151.956C161.885 151.408 162.592 151.354 162.798 151.306C163.109 151.231 163.161 150.998 163.164 150.904C163.223 149.066 163.309 147.543 163.349 146.898L180.224 145.194V147.96C180.224 147.96 180.364 155.348 179.63 158.115C179.155 159.905 178.305 160.335 177.599 160.722C177.222 160.932 176.884 161.14 176.626 161.458C176.517 161.592 176.428 161.792 176.37 162.045C176.302 162.346 176.274 162.73 176.277 163.14C176.282 164.159 176.499 165.325 176.714 165.684C177.463 166.936 178.545 167.832 181.33 168.451C183.871 169.015 189.084 171.489 190.058 178.676C190.875 184.713 191.368 189.02 191.517 190.348H150.326C150.409 188.32 150.917 179.084 153.474 174.096C154.501 172.093 156.443 170.75 158.534 169.751C160.69 168.719 163.011 168.054 164.725 167.455C165.653 167.129 166.41 166.817 166.891 166.484C167.306 166.198 167.535 165.877 167.586 165.543C167.66 165.065 167.725 164.61 167.78 164.19L167.392 164.531L167.403 164.506Z" fill="#000045"/>
<path fill-rule="evenodd" clip-rule="evenodd" d="M161.429 151.14C161.429 151.14 161.58 143.83 165.757 141.415C169.935 139 172.632 138.056 175.323 137.181C178.014 136.304 179.984 139.539 180.74 141.415C181.499 143.292 185.857 143.223 185.902 145.871C185.945 148.519 183.353 150.034 183.358 151.547C183.366 153.057 180.74 153.762 180.74 153.762V149.991C180.74 149.991 177.235 149.579 175.968 146.858C175.968 146.858 175.492 149.627 173.548 149.281C171.603 148.932 170.267 147.298 170.267 147.298C170.267 147.298 170.14 149.733 168.474 150.687C166.808 151.638 166.793 152.622 166.589 153.762C166.589 153.762 165.6 151.805 163.945 151.14C162.719 150.646 161.429 151.14 161.429 151.14Z" fill="#000045"/>
<path fill-rule="evenodd" clip-rule="evenodd" d="M212.433 102.777L212.422 102.771C212.721 100.12 212.192 100.499 209.291 97.3748C209.248 97.3285 209.218 97.2585 209.16 97.2433C207.39 96.7767 204.744 95.7119 205.129 92.4188C205.467 89.505 207.809 89.6552 207.812 89.53C207.89 87.0727 208.019 85.1797 208.019 85.1797L225.657 83.3969V86.5897C225.657 86.5897 225.789 94.0556 225.048 96.8518C224.307 99.6495 222.726 99.4029 221.967 100.342C221.482 100.943 221.76 103.571 222.089 104.12C222.794 105.301 223.829 106.123 226.456 106.706C229.082 107.29 234.479 109.835 235.483 117.261C236.477 124.597 236.993 129.377 236.993 129.377H194.962C194.962 129.377 195.252 118.237 198.166 112.554C201.208 106.621 211.922 106.167 212.24 104.12C212.314 103.645 212.377 103.192 212.433 102.777Z" fill="#CBD9FE"/>
<path fill-rule="evenodd" clip-rule="evenodd" d="M207.433 89.226C207.068 89.3085 206.332 89.5275 205.804 90.0217C205.313 90.4807 204.876 91.2028 204.739 92.374C204.329 95.8758 207.056 97.0781 208.968 97.5961C208.98 97.6125 208.993 97.6287 209.006 97.6401C210.164 98.89 210.943 99.5779 211.444 100.125C212.111 100.857 212.192 101.308 212.033 102.727C212.03 102.755 212.03 102.782 212.033 102.809C211.98 103.199 211.922 103.62 211.853 104.06C211.828 104.219 211.681 104.341 211.484 104.479C211.047 104.782 210.351 105.057 209.506 105.353C207.417 106.085 204.443 106.916 201.934 108.365C200.209 109.361 198.705 110.648 197.817 112.376C194.876 118.115 194.57 129.366 194.57 129.366C194.568 129.419 194.577 129.471 194.596 129.519C194.615 129.568 194.644 129.613 194.68 129.65C194.717 129.687 194.761 129.717 194.809 129.737C194.857 129.757 194.909 129.767 194.962 129.766H236.993C237.104 129.766 237.21 129.721 237.284 129.637C237.359 129.556 237.395 129.445 237.382 129.334C237.382 129.334 236.864 124.551 235.872 117.208C234.833 109.545 229.251 106.927 226.54 106.324C224.074 105.776 223.088 105.028 222.425 103.92C222.243 103.618 222.104 102.63 222.096 101.771C222.094 101.428 222.114 101.106 222.172 100.856C222.197 100.743 222.225 100.648 222.273 100.588C222.546 100.249 222.946 100.092 223.363 99.852C224.115 99.414 224.939 98.7848 225.425 96.9519C226.166 94.1568 226.049 86.745 226.047 86.5859V83.3969C226.047 83.3423 226.035 83.2883 226.013 83.2383C225.991 83.1883 225.959 83.1436 225.918 83.1069C225.878 83.0702 225.83 83.0425 225.778 83.0254C225.726 83.0083 225.671 83.0023 225.617 83.0077L207.979 84.7907C207.789 84.8094 207.642 84.9632 207.63 85.1534C207.63 85.1534 207.511 86.9038 207.433 89.226ZM212.443 103.144L212.809 102.815C213.009 101.053 212.852 100.505 212.02 99.5969C211.52 99.0501 210.738 98.3594 209.577 97.1082C209.542 97.0683 209.509 97.0169 209.471 96.982C209.412 96.9261 209.34 96.886 209.261 96.8654C207.632 96.4363 205.164 95.4906 205.515 92.464C205.624 91.5369 205.95 90.9564 206.337 90.5935C206.924 90.0442 207.632 89.9928 207.837 89.9428C208.148 89.8677 208.201 89.634 208.204 89.5427C208.262 87.7022 208.348 86.1795 208.389 85.535L225.265 83.8297V86.5973C225.265 86.5973 225.402 93.984 224.668 96.7516C224.193 98.5432 223.343 98.9712 222.638 99.3604C222.261 99.5693 221.924 99.7757 221.664 100.096C221.558 100.229 221.467 100.43 221.408 100.683C221.343 100.982 221.312 101.367 221.315 101.776C221.322 102.796 221.54 103.962 221.752 104.321C222.503 105.572 223.586 106.469 226.37 107.088C228.912 107.653 234.125 110.127 235.096 117.313C235.913 123.352 236.408 127.657 236.558 128.985H195.366C195.447 126.956 195.955 117.72 198.512 112.733C199.539 110.731 201.482 109.387 203.573 108.387C205.73 107.356 208.05 106.692 209.764 106.092C210.693 105.766 211.449 105.454 211.929 105.122C212.344 104.834 212.574 104.512 212.625 104.18C212.701 103.703 212.764 103.246 212.82 102.827L212.433 103.167L212.443 103.144Z" fill="#000045"/>
<path fill-rule="evenodd" clip-rule="evenodd" d="M206.396 89.8727C206.396 89.8727 205.698 82.5975 209.514 79.6435C211.343 78.2285 214.254 79.2254 214.254 79.2254C214.254 79.2254 215.134 77.4113 217.086 76.8847C221.649 75.6523 220.351 79.2254 220.351 79.2254C220.351 79.2254 223.682 76.2553 225.875 77.4452C227.261 78.1984 225.875 80.4579 225.875 80.4579C225.875 80.4579 230.012 80.9197 229.742 83.3969C229.595 84.7632 228.325 85.8181 228.325 85.8181C228.325 85.8181 229.373 87.7983 228.325 89.8727C227.549 91.4079 226.105 91.2091 225.349 90.6585C223.735 89.4812 223.308 86.6549 223.308 86.6549C223.308 86.6549 220.665 88.2627 219.112 85.2424C219.112 85.2424 218.467 86.8413 216.492 86.8838C215.371 86.9076 214.254 86.1443 214.254 86.1443C214.254 86.1443 214.35 87.8722 213.69 89.3449C213.05 90.7726 211.975 92.4066 211.555 92.4967C211.555 92.4967 210.566 90.5384 208.912 89.8727C207.685 89.3798 206.396 89.8727 206.396 89.8727Z" fill="#000045"/>
<path fill-rule="evenodd" clip-rule="evenodd" d="M116.191 102.139L116.181 102.133C116.479 99.4815 115.95 99.8607 113.05 96.7367C113.007 96.6904 112.978 96.6204 112.92 96.6052C111.149 96.1386 108.502 95.0738 108.886 91.7807C109.226 88.8669 111.567 89.0169 111.571 88.8919C111.65 86.4346 111.778 84.5416 111.778 84.5416L129.415 82.7589V85.9516C129.415 85.9516 129.547 93.4173 128.805 96.2137C128.064 99.0111 126.486 98.7648 125.727 99.7044C125.241 100.305 125.519 102.932 125.848 103.482C126.554 104.663 127.589 105.485 130.214 106.068C132.84 106.652 138.238 109.197 139.243 116.623C140.236 123.959 140.752 128.739 140.752 128.739H98.72C98.72 128.739 99.0106 117.599 101.925 111.916C104.968 105.983 115.681 105.528 115.998 103.482C116.072 103.007 116.136 102.554 116.191 102.139Z" fill="#CBD9FE"/>
<path fill-rule="evenodd" clip-rule="evenodd" d="M111.19 88.5879C110.827 88.6704 110.091 88.8894 109.562 89.3836C109.072 89.8426 108.634 90.5647 108.498 91.7359C108.089 95.2377 110.815 96.44 112.727 96.958C112.74 96.9742 112.753 96.9906 112.763 97.0018C113.922 98.2519 114.703 98.9398 115.202 99.4866C115.872 100.219 115.952 100.67 115.792 102.089C115.789 102.116 115.789 102.143 115.792 102.17C115.737 102.588 115.677 103.005 115.612 103.421C115.588 103.58 115.441 103.703 115.244 103.841C114.806 104.143 114.111 104.419 113.264 104.715C111.176 105.447 108.202 106.278 105.693 107.727C103.968 108.723 102.463 110.01 101.577 111.738C98.6333 117.477 98.329 128.729 98.329 128.729C98.3262 128.833 98.3665 128.937 98.4401 129.012C98.5134 129.086 98.6146 129.129 98.72 129.129H140.752C140.863 129.129 140.969 129.083 141.043 129C141.117 128.919 141.153 128.808 141.141 128.696C141.141 128.696 140.624 123.914 139.63 116.57C138.593 108.906 133.009 106.289 130.299 105.686C127.833 105.138 126.847 104.39 126.183 103.281C126.003 102.98 125.862 101.991 125.856 101.133C125.854 100.79 125.874 100.468 125.931 100.217C125.957 100.105 125.983 100.01 126.031 99.9494C126.305 99.6105 126.706 99.4542 127.121 99.2139C127.874 98.7759 128.698 98.1467 129.183 96.3138C129.924 93.5187 129.809 86.1066 129.806 85.9478V82.7588C129.806 82.7042 129.795 82.6501 129.772 82.6001C129.75 82.5502 129.718 82.5054 129.677 82.4687C129.637 82.432 129.589 82.4043 129.537 82.3872C129.485 82.3701 129.43 82.3641 129.376 82.3696L111.739 84.1524C111.647 84.1617 111.561 84.2033 111.497 84.2697C111.433 84.3361 111.394 84.4231 111.388 84.5153C111.388 84.5153 111.269 86.2657 111.19 88.5879ZM116.201 102.506L116.569 102.177C116.767 100.415 116.61 99.867 115.779 98.9585C115.279 98.412 114.498 97.7213 113.336 96.4701C113.3 96.4302 113.269 96.3788 113.231 96.3437C113.171 96.2876 113.098 96.2476 113.019 96.2273C111.393 95.7982 108.922 94.8523 109.275 91.8259C109.383 90.8988 109.708 90.3181 110.096 89.9554C110.683 89.4061 111.39 89.3548 111.596 89.3047C111.908 89.2296 111.959 88.9959 111.962 88.9043C112.021 87.0639 112.108 85.5414 112.147 84.897L129.024 83.1916V85.9592C129.024 85.9592 129.161 93.3459 128.428 96.1135C127.953 97.9051 127.103 98.3331 126.398 98.7223C126.021 98.9312 125.683 99.1376 125.423 99.4578C125.316 99.5905 125.226 99.7921 125.168 100.045C125.1 100.344 125.071 100.729 125.074 101.138C125.081 102.158 125.298 103.324 125.512 103.683C126.261 104.934 127.344 105.831 130.129 106.449C132.67 107.015 137.883 109.488 138.855 116.675C139.672 122.712 140.167 127.019 140.316 128.347H99.1249C99.2071 126.319 99.715 117.082 102.273 112.094C103.299 110.093 105.241 108.749 107.333 107.749C109.489 106.718 111.809 106.054 113.523 105.454C114.451 105.128 115.208 104.815 115.689 104.484C116.104 104.196 116.333 103.874 116.385 103.542C116.459 103.065 116.523 102.608 116.578 102.189L116.191 102.529L116.201 102.506Z" fill="#000045"/>
<path fill-rule="evenodd" clip-rule="evenodd" d="M110.101 89.1383C110.101 89.1383 110.251 81.8292 114.429 79.4144C118.606 76.9996 121.304 76.0552 123.994 75.1794C126.685 74.3036 128.656 77.5378 129.413 79.4144C130.17 81.29 134.53 81.2237 134.574 83.8709C134.618 86.5171 132.024 88.0323 132.03 89.545C132.037 91.0564 129.413 91.7622 129.413 91.7622V87.9911C129.413 87.9911 125.906 87.5783 124.641 84.8557C124.641 84.8557 124.165 87.6271 122.219 87.2791C120.274 86.9314 118.938 85.2961 118.938 85.2961C118.938 85.2961 118.811 87.7334 117.146 88.6856C115.48 89.6365 115.465 90.6211 115.26 91.7622C115.26 91.7622 114.272 89.8039 112.617 89.1383C111.39 88.6454 110.101 89.1383 110.101 89.1383ZM204.919 174.116H230.7C230.7 174.116 240.066 134.748 215.976 136.142C195.617 137.318 204.919 174.116 204.919 174.116Z" fill="#000045"/>
<path fill-rule="evenodd" clip-rule="evenodd" d="M213.54 164.109L213.53 164.104C213.829 161.451 213.3 161.83 210.399 158.707C207.498 155.581 209.127 146.511 209.127 146.511L226.765 144.728V147.922C226.765 147.922 226.897 155.386 226.156 158.183C225.415 160.98 223.836 160.735 223.078 161.673C222.589 162.275 222.868 164.903 223.196 165.452C223.905 166.633 224.939 167.455 227.564 168.036C230.189 168.621 235.587 171.167 236.593 178.593C237.585 185.93 238.103 190.707 238.103 190.707H196.069C196.069 190.707 196.36 179.569 199.274 173.886C202.316 167.953 213.032 167.498 213.348 165.452C213.421 164.976 213.485 164.524 213.54 164.109Z" fill="#CBD9FE"/>
<path fill-rule="evenodd" clip-rule="evenodd" d="M213.141 164.139C213.09 164.531 213.029 164.951 212.961 165.391C212.936 165.55 212.792 165.672 212.594 165.811C212.154 166.114 211.461 166.388 210.614 166.686C208.525 167.417 205.551 168.246 203.042 169.696C201.317 170.692 199.812 171.979 198.927 173.707C195.983 179.448 195.68 190.697 195.68 190.697C195.675 190.803 195.715 190.907 195.789 190.98C195.862 191.056 195.963 191.099 196.069 191.099H238.103C238.212 191.099 238.318 191.051 238.394 190.97C238.467 190.887 238.503 190.778 238.49 190.667C238.49 190.667 237.974 185.882 236.98 178.54C235.943 170.877 230.359 168.259 227.648 167.657C225.182 167.108 224.195 166.36 223.533 165.252C223.353 164.948 223.212 163.962 223.207 163.102C223.204 162.761 223.224 162.437 223.28 162.187C223.305 162.075 223.333 161.979 223.381 161.919C223.654 161.58 224.056 161.423 224.471 161.183C225.225 160.745 226.047 160.115 226.532 158.284C227.273 155.49 227.157 148.077 227.154 147.917V144.728C227.154 144.619 227.109 144.511 227.028 144.437C226.987 144.401 226.939 144.374 226.886 144.357C226.834 144.34 226.779 144.334 226.725 144.339L209.089 146.122C208.915 146.139 208.773 146.271 208.743 146.443C208.743 146.443 208.148 149.751 208.308 153.082C208.419 155.373 208.899 157.665 210.113 158.972C211.272 160.222 212.053 160.909 212.551 161.456C213.222 162.189 213.303 162.639 213.143 164.058C213.138 164.086 213.138 164.114 213.141 164.139ZM213.55 164.476L213.92 164.147C214.117 162.384 213.96 161.838 213.128 160.927C212.627 160.381 211.848 159.69 210.685 158.441C209.577 157.247 209.19 155.136 209.089 153.044C208.963 150.381 209.329 147.73 209.463 146.87L226.373 145.161V147.93C226.373 147.93 226.51 155.315 225.776 158.082C225.303 159.875 224.453 160.302 223.748 160.692C223.371 160.902 223.032 161.107 222.772 161.428C222.665 161.559 222.574 161.762 222.519 162.015C222.45 162.313 222.42 162.698 222.423 163.107C222.43 164.126 222.648 165.292 222.863 165.652C223.611 166.903 224.694 167.801 227.478 168.418C230.02 168.985 235.232 171.458 236.204 178.644C237.023 184.683 237.516 188.988 237.665 190.318H196.474C196.557 188.287 197.066 179.051 199.623 174.063C200.649 172.063 202.592 170.72 204.683 169.718C206.838 168.689 209.157 168.024 210.872 167.422C211.8 167.098 212.559 166.785 213.04 166.453C213.454 166.165 213.682 165.844 213.735 165.512C213.808 165.034 213.872 164.579 213.927 164.159L213.54 164.498L213.55 164.476Z" fill="#000045"/>
<path fill-rule="evenodd" clip-rule="evenodd" d="M208.679 151.269C208.679 151.269 217.167 153.466 220.865 146.673C220.865 146.673 222.076 151.443 226.811 151.269L228.872 149.448L226.811 142.052L215.976 139.607L208.679 143.36L206.881 151.269H208.679Z" fill="#000045"/>
<path fill-rule="evenodd" clip-rule="evenodd" d="M266.95 164.109L266.94 164.104C267.238 161.451 266.71 161.83 263.809 158.707C263.766 158.661 263.738 158.59 263.68 158.575C261.909 158.107 259.261 157.042 259.646 153.75C259.985 150.836 262.327 150.988 262.329 150.861C262.408 148.403 262.537 146.511 262.537 146.511L280.175 144.728V147.922C280.175 147.922 280.306 155.386 279.565 158.183C278.824 160.98 277.246 160.735 276.487 161.673C275.999 162.275 276.277 164.903 276.606 165.452C277.312 166.633 278.349 167.455 280.974 168.036C283.599 168.621 288.996 171.167 290 178.593C290.994 185.93 291.51 190.707 291.51 190.707H249.479C249.479 190.707 249.77 179.569 252.683 173.886C255.726 167.953 266.439 167.498 266.758 165.452C266.831 164.976 266.894 164.524 266.95 164.109Z" fill="#CBD9FE"/>
<path fill-rule="evenodd" clip-rule="evenodd" d="M261.95 150.558C261.586 150.641 260.85 150.859 260.321 151.352C259.831 151.812 259.393 152.536 259.256 153.707C258.849 157.207 261.576 158.411 263.485 158.927C263.498 158.944 263.513 158.96 263.523 158.972C264.681 160.222 265.46 160.909 265.961 161.456C266.631 162.189 266.71 162.639 266.55 164.058C266.548 164.086 266.548 164.114 266.55 164.139C266.5 164.531 266.439 164.951 266.371 165.391C266.345 165.55 266.201 165.672 266.002 165.811C265.564 166.114 264.871 166.387 264.024 166.686C261.935 167.417 258.96 168.246 256.452 169.696C254.727 170.692 253.222 171.979 252.337 173.707C249.393 179.448 249.087 190.697 249.087 190.697C249.084 190.803 249.125 190.907 249.198 190.98C249.272 191.056 249.373 191.099 249.479 191.099H291.51C291.621 191.099 291.728 191.051 291.801 190.97C291.877 190.887 291.912 190.778 291.9 190.667C291.9 190.667 291.384 185.882 290.39 178.54C289.353 170.877 283.768 168.259 281.057 167.657C278.591 167.108 277.605 166.36 276.942 165.252C276.763 164.948 276.621 163.962 276.614 163.102C276.614 162.761 276.634 162.437 276.69 162.187C276.715 162.075 276.743 161.979 276.791 161.919C277.064 161.58 277.466 161.423 277.881 161.183C278.634 160.745 279.456 160.115 279.942 158.284C280.683 155.49 280.567 148.077 280.564 147.917V144.728C280.564 144.619 280.519 144.511 280.435 144.437C280.354 144.364 280.245 144.329 280.134 144.339L262.499 146.122C262.309 146.142 262.16 146.294 262.147 146.486C262.147 146.486 262.028 148.236 261.95 150.558ZM266.96 164.475L267.329 164.147C267.527 162.384 267.37 161.838 266.538 160.927C266.037 160.381 265.255 159.69 264.095 158.441C264.059 158.401 264.029 158.347 263.988 158.315C263.928 158.256 263.859 158.216 263.778 158.198C262.152 157.768 259.681 156.822 260.033 153.795C260.142 152.869 260.468 152.288 260.855 151.926C261.442 151.375 262.15 151.324 262.355 151.274C262.666 151.2 262.719 150.965 262.721 150.874C262.779 149.033 262.865 147.51 262.906 146.868L279.783 145.161V147.93C279.783 147.93 279.919 155.315 279.186 158.082C278.713 159.875 277.863 160.302 277.157 160.692C276.781 160.902 276.442 161.107 276.181 161.428C276.075 161.559 275.984 161.762 275.928 162.015C275.86 162.313 275.83 162.698 275.832 163.107C275.84 164.126 276.057 165.292 276.272 165.652C277.021 166.903 278.103 167.801 280.888 168.418C283.43 168.985 288.642 171.458 289.613 178.644C290.43 184.683 290.926 188.988 291.075 190.318H249.884C249.967 188.287 250.473 179.051 253.032 174.063C254.059 172.063 256.001 170.72 258.09 169.718C260.248 168.689 262.567 168.024 264.282 167.422C265.21 167.098 265.966 166.785 266.447 166.453C266.864 166.165 267.092 165.844 267.145 165.512C267.218 165.034 267.281 164.579 267.337 164.159L266.95 164.498L266.96 164.475Z" fill="#000045"/>
<path fill-rule="evenodd" clip-rule="evenodd" d="M260.731 151.301C259.385 146.817 259.79 143.421 262.279 141.486C266.715 138.039 270.278 137.71 274.772 139.005C276.315 139.136 277.663 139.043 278.973 138.509L279.343 141.486C280.316 140.849 280.895 140.148 281.879 139.005C282.469 143.529 281.778 149.341 280.21 152.192C279.267 148.426 278.811 145.77 275.625 145.821C274.573 145.839 272.888 147.08 272.888 147.08C272.888 147.08 269.244 145.5 267.418 147.08C265.627 148.631 266.346 153.456 265.89 153.927C265.89 153.927 264.901 151.967 263.247 151.301C262.021 150.808 260.731 151.301 260.731 151.301ZM256.517 110.392H282.297C282.297 110.392 291.664 71.0243 267.575 72.4181C247.215 73.5954 256.517 110.392 256.517 110.392Z" fill="#000045"/>
<path fill-rule="evenodd" clip-rule="evenodd" d="M62.781 102.139L62.7714 102.133C63.0693 99.4815 62.5405 99.8607 59.6403 96.7367C59.5973 96.6904 59.5685 96.6204 59.5101 96.6052C57.7397 96.1386 55.0925 95.0738 55.4767 91.7807C55.8166 88.8669 58.1578 89.0169 58.1618 88.8919C58.2076 87.4408 58.2764 85.9905 58.3684 84.5416L76.0054 82.7589V85.9516C76.0054 85.9516 76.1369 93.4173 75.3959 96.2137C74.6549 99.0111 73.0762 98.7648 72.3175 99.7044C71.8314 100.305 72.1096 102.932 72.4384 103.482C73.1445 104.663 74.1791 105.485 76.8046 106.068C79.4301 106.652 84.8282 109.197 85.833 116.623C86.8259 123.959 87.3429 128.739 87.3429 128.739H45.3104C45.3104 128.739 45.601 117.599 48.515 111.916C51.5581 105.983 62.2719 105.528 62.5888 103.482C62.6621 103.007 62.7261 102.554 62.781 102.139Z" fill="#CBD9FE"/>
<path fill-rule="evenodd" clip-rule="evenodd" d="M57.7807 88.5879C57.417 88.6704 56.6815 88.8894 56.1522 89.3836C55.6625 89.8426 55.2248 90.5647 55.0884 91.7359C54.68 95.2377 57.4059 96.44 59.3171 96.958C59.33 96.9742 59.3434 96.9906 59.3538 97.0018C60.5129 98.2519 61.2931 98.9398 61.7926 99.4866C62.462 100.219 62.5425 100.67 62.3829 102.089C62.3799 102.116 62.3796 102.143 62.3821 102.17C62.3269 102.588 62.267 103.005 62.2025 103.421C62.178 103.58 62.0318 103.703 61.8343 103.841C61.396 104.143 60.7013 104.419 59.8548 104.715C57.766 105.447 54.7928 106.278 52.2831 107.727C50.5588 108.723 49.0532 110.01 48.1673 111.738C45.2237 117.477 44.9194 128.729 44.9194 128.729C44.9166 128.833 44.9568 128.937 45.0304 129.012C45.1038 129.086 45.2049 129.129 45.3104 129.129H87.3429C87.4536 129.129 87.5596 129.083 87.6337 129C87.7078 128.919 87.7435 128.808 87.7316 128.696C87.7316 128.696 87.2144 123.914 86.2204 116.57C85.1833 108.906 79.5995 106.289 76.8896 105.686C74.4232 105.138 73.4371 104.39 72.7737 103.281C72.5936 102.98 72.4525 101.991 72.4464 101.133C72.4439 100.79 72.4644 100.468 72.5213 100.217C72.5471 100.105 72.5734 100.01 72.6217 99.9494C72.8956 99.6105 73.2965 99.4542 73.7117 99.2139C74.4647 98.7759 75.2884 98.1467 75.7737 96.3138C76.5148 93.5187 76.3989 86.1066 76.3964 85.9478V82.7588C76.3965 82.7042 76.385 82.6501 76.3629 82.6001C76.3407 82.5501 76.3084 82.5053 76.2678 82.4686C76.2273 82.4319 76.1795 82.4042 76.1275 82.3871C76.0755 82.37 76.0206 82.3641 75.9662 82.3696L58.329 84.1524C58.2371 84.1617 58.1514 84.2033 58.0872 84.2697C58.023 84.3361 57.9844 84.4231 57.9782 84.5153C57.9782 84.5153 57.8598 86.2657 57.7807 88.5879ZM62.7913 102.506L63.1601 102.177C63.3578 100.415 63.2005 99.867 62.3697 98.9585C61.8692 98.412 61.088 97.7213 59.9269 96.4701C59.8902 96.4302 59.8591 96.3788 59.8209 96.3437C59.7615 96.2876 59.6888 96.2476 59.6097 96.2273C57.983 95.7982 55.5121 94.8523 55.8651 91.8259C55.9731 90.8988 56.2989 90.3181 56.6866 89.9554C57.2733 89.4061 57.9805 89.3547 58.1866 89.3047C58.4982 89.2296 58.5495 88.9959 58.5525 88.9043C58.6115 87.0639 58.698 85.5414 58.7377 84.897L75.6144 83.1916V85.9592C75.6144 85.9592 75.7512 93.3459 75.018 96.1135C74.5433 97.9051 73.6935 98.3331 72.9879 98.7223C72.6111 98.9312 72.2729 99.1376 72.0134 99.4578C71.906 99.5905 71.8162 99.7921 71.7585 100.045C71.6907 100.344 71.6616 100.729 71.6644 101.138C71.6715 102.158 71.8885 103.324 72.1027 103.683C72.8519 104.934 73.9348 105.831 76.7196 106.449C79.2609 107.015 84.4731 109.488 85.4455 116.675C86.2627 122.712 86.7571 127.019 86.9061 128.347H45.7153C45.7975 126.319 46.3054 117.082 48.8631 112.094C49.8896 110.093 51.8317 108.749 53.9233 107.749C56.0791 106.718 58.3995 106.054 60.1135 105.454C61.0417 105.128 61.7987 104.815 62.2792 104.484C62.6945 104.196 62.9236 103.874 62.9752 103.542C63.049 103.065 63.1135 102.608 63.1687 102.189L62.7812 102.529L62.7913 102.506Z" fill="#000045"/>
<path fill-rule="evenodd" clip-rule="evenodd" d="M265.842 102.777L265.832 102.771C266.128 100.12 265.599 100.499 262.701 97.3748C262.658 97.3285 262.628 97.2585 262.57 97.2433C260.799 96.7767 258.154 95.7119 258.536 92.4188C258.877 89.505 261.216 89.6552 261.222 89.53C261.3 87.0727 261.429 85.1797 261.429 85.1797L263.981 84.0262L279.064 83.3969V86.5897C279.064 86.5897 279.196 94.0556 278.455 96.8518C277.714 99.6495 276.136 99.4029 275.377 100.342C274.891 100.943 275.17 103.571 275.498 104.12C276.204 105.301 277.238 106.123 279.864 106.706C282.489 107.29 287.888 109.835 288.892 117.261C289.886 124.597 290.402 129.377 290.402 129.377H248.371C248.371 129.377 248.662 118.237 251.576 112.554C254.618 106.621 265.331 106.167 265.647 104.12C265.723 103.645 265.787 103.192 265.842 102.777Z" fill="#CBD9FE"/>
<path fill-rule="evenodd" clip-rule="evenodd" d="M260.84 89.226C260.478 89.3085 259.742 89.5275 259.213 90.0217C258.723 90.4807 258.285 91.2028 258.149 92.3737C257.739 95.8758 260.465 97.0781 262.377 97.5961C262.39 97.6123 262.403 97.6287 262.413 97.6398C263.574 98.89 264.353 99.5779 264.853 100.125C265.521 100.857 265.602 101.308 265.443 102.727C265.44 102.754 265.44 102.781 265.443 102.808C265.39 103.199 265.331 103.62 265.263 104.059C265.238 104.219 265.091 104.341 264.894 104.479C264.456 104.782 263.761 105.057 262.916 105.353C260.827 106.085 257.853 106.916 255.344 108.365C253.619 109.361 252.114 110.648 251.227 112.376C248.283 118.115 247.979 129.366 247.979 129.366C247.978 129.419 247.987 129.471 248.006 129.519C248.025 129.568 248.053 129.613 248.09 129.65C248.127 129.687 248.17 129.717 248.219 129.737C248.267 129.757 248.319 129.767 248.371 129.766H290.402C290.514 129.766 290.62 129.721 290.693 129.637C290.767 129.556 290.804 129.445 290.792 129.334C290.792 129.334 290.273 124.551 289.279 117.208C288.242 109.545 282.658 106.927 279.95 106.324C277.484 105.776 276.497 105.028 275.835 103.919C275.653 103.618 275.513 102.63 275.506 101.771C275.503 101.428 275.524 101.106 275.582 100.855C275.607 100.743 275.632 100.648 275.68 100.588C275.956 100.249 276.356 100.092 276.773 99.852C277.524 99.414 278.349 98.7848 278.834 96.9519C279.575 94.1568 279.459 86.7447 279.456 86.5859V83.3969C279.456 83.2905 279.413 83.1878 279.335 83.1152C279.259 83.0416 279.155 83.0014 279.049 83.0064L263.966 83.6344C263.915 83.637 263.867 83.6483 263.821 83.6696L261.267 84.8231C261.136 84.883 261.047 85.0095 261.039 85.1534C261.039 85.1534 260.921 86.9038 260.84 89.226ZM265.852 103.144L266.219 102.815C266.419 101.053 266.26 100.505 265.43 99.5966C264.929 99.0501 264.148 98.3594 262.987 97.1082C262.949 97.0683 262.919 97.0169 262.881 96.9818C262.822 96.926 262.749 96.886 262.671 96.8654C261.042 96.4362 258.571 95.4904 258.925 92.464C259.034 91.5369 259.358 90.9562 259.747 90.5935C260.334 90.0442 261.039 89.9928 261.247 89.9428C261.558 89.8677 261.608 89.634 261.614 89.5424C261.674 87.6031 261.768 86.0156 261.803 85.4399L264.074 84.4129L278.675 83.8046V86.5973C278.675 86.5973 278.811 93.984 278.078 96.7516C277.603 98.5432 276.753 98.9712 276.047 99.3604C275.67 99.5693 275.334 99.7757 275.073 100.096C274.967 100.229 274.876 100.43 274.818 100.683C274.75 100.982 274.722 101.367 274.724 101.776C274.732 102.796 274.95 103.962 275.162 104.321C275.911 105.572 276.996 106.469 279.78 107.087C282.322 107.653 287.532 110.127 288.506 117.313C289.322 123.352 289.818 127.657 289.965 128.985H248.776C248.857 126.956 249.365 117.72 251.922 112.733C252.949 110.731 254.891 109.387 256.983 108.387C259.14 107.356 261.459 106.692 263.174 106.092C264.102 105.766 264.858 105.454 265.339 105.122C265.754 104.834 265.984 104.512 266.034 104.18C266.11 103.703 266.174 103.246 266.229 102.827L265.842 103.167L265.852 103.144Z" fill="#000045"/>
<path fill-rule="evenodd" clip-rule="evenodd" d="M116.191 164.109L116.181 164.104C116.479 161.451 115.95 161.83 113.05 158.707C113.007 158.661 112.978 158.59 112.92 158.575C111.149 158.107 108.502 157.042 108.886 153.75C109.226 150.836 111.567 150.988 111.571 150.861C111.65 148.403 111.778 146.511 111.778 146.511L129.415 144.728V147.922C129.415 147.922 129.547 155.386 128.805 158.183C128.064 160.98 126.486 160.735 125.727 161.673C125.241 162.275 125.519 164.903 125.848 165.452C126.554 166.633 127.589 167.455 130.214 168.036C132.84 168.621 138.238 171.167 139.243 178.593C140.236 185.93 140.752 190.707 140.752 190.707H98.72C98.72 190.707 99.0106 179.569 101.925 173.886C104.968 167.953 115.681 167.498 115.998 165.452C116.072 164.976 116.136 164.524 116.191 164.109Z" fill="#CBD9FE"/>
<path fill-rule="evenodd" clip-rule="evenodd" d="M111.19 150.558C110.827 150.641 110.091 150.859 109.562 151.352C109.072 151.812 108.634 152.536 108.498 153.707C108.089 157.207 110.815 158.411 112.727 158.927C112.74 158.944 112.753 158.96 112.763 158.972C113.922 160.222 114.703 160.909 115.202 161.456C115.872 162.189 115.952 162.639 115.792 164.058C115.789 164.086 115.789 164.114 115.792 164.139C115.74 164.531 115.68 164.951 115.612 165.391C115.588 165.55 115.441 165.672 115.244 165.811C114.806 166.114 114.111 166.387 113.264 166.686C111.176 167.417 108.202 168.246 105.693 169.696C103.968 170.692 102.463 171.979 101.577 173.707C98.6333 179.448 98.329 190.697 98.329 190.697C98.3262 190.803 98.3665 190.907 98.4401 190.98C98.5134 191.056 98.6146 191.099 98.72 191.099H140.752C140.863 191.099 140.969 191.051 141.043 190.97C141.117 190.887 141.153 190.778 141.141 190.667C141.141 190.667 140.624 185.882 139.63 178.54C138.593 170.877 133.009 168.259 130.299 167.657C127.833 167.108 126.847 166.36 126.183 165.252C126.003 164.948 125.862 163.962 125.856 163.102C125.854 162.761 125.874 162.437 125.931 162.187C125.957 162.075 125.983 161.979 126.031 161.919C126.305 161.58 126.706 161.423 127.121 161.183C127.874 160.745 128.698 160.115 129.183 158.284C129.924 155.49 129.809 148.077 129.806 147.917V144.728C129.806 144.619 129.759 144.511 129.677 144.437C129.636 144.401 129.589 144.374 129.537 144.357C129.485 144.34 129.43 144.334 129.376 144.339L111.739 146.122C111.647 146.131 111.561 146.173 111.497 146.24C111.432 146.306 111.394 146.394 111.388 146.486C111.388 146.486 111.269 148.236 111.19 150.558ZM116.201 164.475L116.569 164.147C116.767 162.384 116.61 161.838 115.779 160.927C115.279 160.381 114.498 159.69 113.336 158.441C113.3 158.401 113.269 158.347 113.231 158.315C113.172 158.257 113.099 158.217 113.019 158.198C111.393 157.768 108.922 156.822 109.275 153.795C109.383 152.869 109.708 152.288 110.096 151.926C110.683 151.375 111.39 151.324 111.596 151.274C111.908 151.2 111.959 150.965 111.962 150.874C112.021 149.033 112.108 147.51 112.147 146.868L129.024 145.161V147.93C129.024 147.93 129.161 155.315 128.428 158.082C127.953 159.875 127.103 160.302 126.398 160.692C126.021 160.902 125.683 161.107 125.423 161.428C125.316 161.559 125.226 161.762 125.168 162.015C125.1 162.313 125.071 162.698 125.074 163.107C125.081 164.126 125.298 165.292 125.512 165.652C126.261 166.903 127.344 167.801 130.129 168.418C132.67 168.985 137.883 171.458 138.855 178.644C139.672 184.683 140.167 188.988 140.316 190.318H99.1249C99.2071 188.287 99.715 179.051 102.273 174.063C103.299 172.063 105.241 170.72 107.333 169.718C109.489 168.689 111.809 168.024 113.523 167.422C114.451 167.098 115.208 166.785 115.689 166.453C116.104 166.165 116.333 165.844 116.385 165.512C116.459 165.034 116.523 164.579 116.578 164.159L116.191 164.498L116.201 164.475ZM56.8181 89.1383C56.8181 89.1383 56.9683 81.8292 61.1459 79.4144C65.3235 76.9996 68.021 76.0552 70.7112 75.1794C73.4017 74.3036 75.3728 77.5378 76.1298 79.4144C76.8865 81.29 81.2465 81.2237 81.291 83.8709C81.3352 86.5171 78.7404 88.0323 78.7472 89.545C78.7538 91.0564 76.1298 91.7622 76.1298 91.7622V87.9911C76.1298 87.9911 72.6227 87.5783 71.3574 84.8557C71.3574 84.8557 70.8814 87.6271 68.9363 87.2791C66.9909 86.9314 65.6553 85.2961 65.6553 85.2961C65.6553 85.2961 65.5283 87.7334 63.8627 88.6856C62.197 89.6365 62.1821 90.6211 61.9775 91.7622C61.9775 91.7622 60.9886 89.8039 59.3338 89.1383C58.1074 88.6454 56.8181 89.1383 56.8181 89.1383ZM77.3526 141.865C77.3526 141.865 79.8291 144.427 79.9804 150.601C80.1316 156.774 78.9462 164.172 78.9462 164.172H70.7719L72.0054 142.723L77.3526 141.865Z" fill="#000045"/>
<path fill-rule="evenodd" clip-rule="evenodd" d="M109.131 152.629C109.492 151.792 110.833 150.783 112.63 152.032C113.984 152.971 114.499 153.517 114.499 153.517L114.984 149.832C114.984 149.832 117.526 149.276 118.663 146.215C118.663 146.215 123.269 150.123 129.242 149.293V151.873C129.242 151.873 133.145 148.886 131.078 143.282C129.012 137.675 119.064 135.826 113.804 141.359C113.804 141.359 109.919 141.696 108.464 144.943C107.009 148.186 109.131 152.629 109.131 152.629ZM261.452 89.8714C261.452 89.8714 263.245 88.2063 264.102 84.812C264.102 84.812 268.852 90.9701 279.062 89.5525L280.863 88.9157L279.651 80.036L258.869 81.49V87.7194L261.452 89.8714Z" fill="#000045"/>
<path fill-rule="evenodd" clip-rule="evenodd" d="M62.781 164.109L62.7714 164.104C63.0693 161.451 62.5405 161.83 59.6403 158.707C56.7402 155.581 58.3684 146.511 58.3684 146.511L76.0054 144.728V147.922C76.0054 147.922 76.1369 155.386 75.3959 158.183C74.6549 160.98 73.0762 160.735 72.3175 161.673C71.8314 162.275 72.1096 164.903 72.4384 165.452C73.1445 166.633 74.1791 167.455 76.8046 168.036C79.4301 168.621 84.8282 171.167 85.833 178.593C86.8259 185.93 87.3429 190.707 87.3429 190.707H45.3104C45.3104 190.707 45.601 179.569 48.515 173.886C51.5581 167.953 62.2719 167.498 62.5888 165.452C62.6621 164.976 62.7261 164.524 62.781 164.109Z" fill="#CBD9FE"/>
<path fill-rule="evenodd" clip-rule="evenodd" d="M62.3821 164.139C62.3305 164.531 62.2706 164.951 62.2025 165.391C62.178 165.55 62.0318 165.672 61.8343 165.811C61.396 166.114 60.7013 166.388 59.8548 166.686C57.766 167.417 54.7928 168.246 52.2831 169.696C50.5588 170.692 49.0532 171.979 48.1673 173.707C45.2237 179.448 44.9194 190.697 44.9194 190.697C44.9166 190.803 44.9568 190.907 45.0304 190.98C45.1038 191.056 45.2049 191.099 45.3104 191.099H87.3429C87.4536 191.099 87.5596 191.051 87.6337 190.97C87.7078 190.887 87.7435 190.778 87.7316 190.667C87.7316 190.667 87.2144 185.882 86.2204 178.54C85.1833 170.877 79.5995 168.259 76.8896 167.657C74.4232 167.108 73.4371 166.36 72.7737 165.252C72.5936 164.948 72.4525 163.962 72.4464 163.102C72.4439 162.761 72.4644 162.437 72.5213 162.187C72.5471 162.075 72.5734 161.979 72.6217 161.919C72.8956 161.58 73.2965 161.423 73.7117 161.183C74.4647 160.745 75.2884 160.115 75.7737 158.284C76.5148 155.49 76.3989 148.077 76.3964 147.917V144.728C76.3964 144.619 76.3496 144.511 76.2677 144.437C76.2269 144.401 76.1791 144.374 76.1272 144.357C76.0753 144.34 76.0205 144.334 75.9662 144.339L58.329 146.122C58.2443 146.131 58.1649 146.167 58.1025 146.225C58.0402 146.283 57.9984 146.359 57.9835 146.443C57.9835 146.443 57.3897 149.751 57.5493 153.082C57.659 155.373 58.1413 157.665 59.3538 158.972C60.5129 160.222 61.2931 160.909 61.7926 161.456C62.462 162.189 62.5425 162.639 62.3829 164.058C62.3798 164.086 62.3796 164.114 62.3821 164.139ZM62.7913 164.476L63.1601 164.147C63.3578 162.384 63.2005 161.838 62.3697 160.927C61.8692 160.381 61.088 159.69 59.9269 158.441C58.8194 157.247 58.4306 155.136 58.3302 153.044C58.2025 150.381 58.57 147.73 58.7053 146.87L75.6144 145.161V147.93C75.6144 147.93 75.7512 155.315 75.018 158.082C74.5433 159.875 73.6935 160.302 72.9879 160.692C72.6111 160.902 72.2729 161.107 72.0134 161.428C71.906 161.559 71.8162 161.762 71.7585 162.015C71.6907 162.313 71.6616 162.698 71.6644 163.107C71.6715 164.126 71.8885 165.292 72.1027 165.652C72.8519 166.903 73.9348 167.801 76.7196 168.418C79.2609 168.985 84.4731 171.458 85.4455 178.644C86.2627 184.683 86.7571 188.988 86.9061 190.318H45.7153C45.7975 188.287 46.3054 179.051 48.8631 174.063C49.8896 172.063 51.8317 170.72 53.9233 169.718C56.0791 168.689 58.3995 168.024 60.1135 167.422C61.0417 167.098 61.7987 166.785 62.2792 166.453C62.6945 166.165 62.9236 165.844 62.9752 165.512C63.049 165.034 63.1135 164.579 63.1687 164.159L62.7812 164.498L62.7913 164.476Z" fill="#000045"/>
<path fill-rule="evenodd" clip-rule="evenodd" d="M61.592 149.197L63.8232 149.111L64.9094 146.274L65.5101 149.111L76.0145 149.197L77.7004 142.293C77.7004 142.293 72.0339 134.764 63.8232 137.541C54.9913 140.527 53.5237 147.28 54.4994 164.172H62.7777C63.0774 162.06 62.484 161.329 61.1767 160.211L61.592 149.197Z" fill="#000045"/>
<path d="M161.389 135.707C186.793 135.707 207.387 115.112 207.387 89.7073C207.387 64.303 186.793 43.7087 161.389 43.7087C135.985 43.7087 115.39 64.303 115.39 89.7073C115.39 115.112 135.985 135.707 161.389 135.707Z" fill="white"/>
<path fill-rule="evenodd" clip-rule="evenodd" d="M167.088 82.6478L167.433 89.6335C163.137 91.6269 159.447 91.659 154.458 89.8962L154.218 80.2568L160.338 79.7358L167.088 82.6478Z" fill="white"/>
<path fill-rule="evenodd" clip-rule="evenodd" d="M167.479 82.6291C167.476 82.5559 167.452 82.485 167.41 82.4246C167.369 82.3642 167.311 82.3168 167.244 82.2877L160.488 79.3777C160.431 79.3509 160.367 79.3399 160.305 79.3458L154.185 79.8668C153.978 79.8916 153.822 80.0651 153.825 80.2677L154.065 89.9071C154.066 90.068 154.176 90.2106 154.327 90.2672C159.43 92.0616 163.204 92.0346 167.594 89.9845C167.739 89.9238 167.825 89.7758 167.817 89.6165L167.479 82.6291ZM166.709 82.9093L167.023 89.3856C163.004 91.2017 159.492 91.2159 154.839 89.6173L154.617 80.618L160.274 80.1331L166.709 82.9093Z" fill="#000045"/>
<path fill-rule="evenodd" clip-rule="evenodd" d="M152.907 90.0493C152.907 90.0493 153.036 87.591 154.219 87.4357C155.402 87.2806 162.808 87.5809 167.431 87.4357C168.222 87.4106 168.914 89.2073 168.832 90.0493C168.832 90.0493 178.866 92.7655 182.05 95.1166C187.536 99.1677 186.861 128.17 186.861 128.17C170.086 140.34 152.475 138.919 135.892 129.354C135.892 129.354 135.962 101.153 137.229 97.4337C138.268 94.3834 149.622 90.6449 152.907 90.0493Z" fill="#FFD83D"/>
<path fill-rule="evenodd" clip-rule="evenodd" d="M146.158 80.9973C146.158 80.9973 138.417 79.6053 132.921 87.5588L135.939 90.7748L137.895 90.0237L137.01 91.6534L142.47 97.6773C142.47 97.6773 150.974 95.1259 149.969 84.9374L146.158 80.9973Z" fill="white"/>
<path fill-rule="evenodd" clip-rule="evenodd" d="M146.431 80.725C146.376 80.6622 146.3 80.6283 146.219 80.6071C146.219 80.6071 138.245 79.1577 132.603 87.3345C132.496 87.4913 132.511 87.6952 132.635 87.8259L135.653 91.0419C135.706 91.0986 135.775 91.1382 135.851 91.1558C135.927 91.1734 136.006 91.168 136.079 91.1406L137.048 90.7685L136.667 91.4706C136.587 91.6168 136.604 91.7991 136.721 91.9117L142.184 97.9444C142.279 98.0549 142.433 98.1007 142.583 98.0536C142.583 98.0536 151.394 95.4264 150.36 84.8919C150.35 84.8117 150.315 84.7204 150.251 84.6613L146.431 80.725ZM145.964 81.3658L149.591 85.1031C150.384 93.8626 143.903 96.7387 142.589 97.2226L137.482 91.5986L138.242 90.2159C138.313 90.073 138.295 89.8909 138.188 89.7749C138.086 89.6461 137.914 89.6074 137.758 89.6671L136.045 90.3143L133.421 87.5239C138.342 80.641 145 81.2323 145.964 81.3658Z" fill="#000045"/>
<path fill-rule="evenodd" clip-rule="evenodd" d="M174.714 81.1041C174.714 81.1041 182.723 79.4652 188.634 87.5958L178.96 98.3498C178.96 98.3498 170.057 95.9087 170.849 85.2938L174.714 81.1041Z" fill="white"/>
<path fill-rule="evenodd" clip-rule="evenodd" d="M174.643 80.7224C174.562 80.7368 174.483 80.7738 174.433 80.8307L170.556 85.0265C170.5 85.093 170.462 85.1663 170.462 85.2629C169.645 96.2155 178.856 98.7337 178.856 98.7337C179.003 98.7754 179.15 98.7301 179.253 98.6166L188.92 87.859C189.043 87.7199 189.061 87.5209 188.955 87.3641C182.885 79.0145 174.643 80.7224 174.643 80.7224ZM174.918 81.469C175.902 81.3125 182.829 80.5074 188.135 87.569L178.836 97.9059C177.488 97.4459 170.614 94.6252 171.226 85.4496L174.918 81.469Z" fill="#000045"/>
<path fill-rule="evenodd" clip-rule="evenodd" d="M171.385 73.6065C171.385 73.6065 173.115 76.6569 173.937 80.1496L170.082 84.3595C170.082 84.3595 167.548 84.7998 165.182 82.9384L171.385 73.6065Z" fill="white"/>
<path fill-rule="evenodd" clip-rule="evenodd" d="M171.729 73.4214C171.668 73.2982 171.547 73.2249 171.408 73.2115C171.34 73.21 171.273 73.2262 171.213 73.2585C171.153 73.2908 171.103 73.3382 171.067 73.3959L164.858 82.7164C164.747 82.8788 164.785 83.1172 164.94 83.2442C167.445 85.225 170.151 84.7455 170.151 84.7455C170.241 84.7376 170.318 84.6946 170.386 84.6286L174.23 80.4232C174.311 80.3251 174.342 80.1938 174.319 80.0689C173.487 76.514 171.729 73.4214 171.729 73.4214ZM171.35 74.3787C171.866 75.3787 172.898 77.579 173.512 80.0461L169.9 83.9893C169.403 84.0472 167.546 84.1344 165.717 82.8393L171.35 74.3787Z" fill="#000045"/>
<path fill-rule="evenodd" clip-rule="evenodd" d="M150.119 67.0003C150.119 67.0003 148.337 67.8237 146.438 69.58C144.538 71.3359 145.914 76.7545 146.808 77.7075C147.708 78.6569 150.101 79.8314 151.657 79.644C151.657 79.644 153.375 81.5163 156.414 83.398C159.452 85.2796 164.969 85.8611 169.317 82.2126C171.142 80.6779 171.873 78.1291 172.126 76.2274C172.372 74.3271 173.302 66.5253 173.302 66.5253L167.446 57.7314L154.202 59.6681L151.32 67.1161L150.119 67.0003Z" fill="white"/>
<path fill-rule="evenodd" clip-rule="evenodd" d="M150.159 66.61C150.09 66.6042 150.02 66.6161 149.956 66.6447C149.956 66.6447 148.126 67.4879 146.173 69.2924C145.341 70.061 145.05 71.4568 145.099 72.9386C145.151 74.41 145.53 75.9558 145.936 76.9561C146.135 77.424 146.339 77.7811 146.526 77.974C147.445 78.95 149.842 80.1357 151.502 80.0497C151.968 80.5231 153.612 82.1251 156.206 83.7308C159.351 85.6792 165.071 86.2875 169.563 82.5143C171.474 80.9106 172.253 78.2606 172.516 76.2775C172.761 74.3771 173.689 66.5718 173.689 66.5718C173.702 66.4788 173.682 66.3847 173.626 66.3085L167.771 57.5149C167.73 57.4536 167.673 57.405 167.605 57.3748C167.538 57.3445 167.464 57.3338 167.391 57.3439L154.147 59.2807C154.079 59.2909 154.015 59.3189 153.961 59.3619C153.907 59.4049 153.866 59.4613 153.841 59.5255L151.061 66.699L150.159 66.61ZM150.187 67.4014L151.28 67.5063C151.364 67.5146 151.45 67.495 151.522 67.4503C151.594 67.4056 151.65 67.3384 151.681 67.259L154.484 60.0219L167.257 58.154L172.898 66.6214C172.769 67.6904 171.964 74.4303 171.737 76.1769C171.502 77.9958 170.816 80.4422 169.064 81.9139C164.873 85.4311 159.552 84.8792 156.621 83.0651C153.636 81.2171 151.94 79.3817 151.94 79.3817C151.899 79.336 151.848 79.3008 151.79 79.2789C151.733 79.257 151.671 79.2492 151.61 79.256C150.154 79.4328 147.931 78.3248 147.095 77.4374C146.904 77.234 146.693 76.798 146.505 76.233C146.188 75.3187 145.925 74.0886 145.883 72.9105C145.837 71.6829 146.019 70.5021 146.702 69.8673C148.301 68.3905 149.811 67.5898 150.187 67.4014Z" fill="#000045"/>
<path fill-rule="evenodd" clip-rule="evenodd" d="M147.849 71.8155C147.849 71.8155 149.556 72.2378 151.373 73.6227C151.455 73.6857 151.56 73.7133 151.662 73.6994C151.765 73.6856 151.859 73.6314 151.922 73.5489C151.983 73.4657 152.009 73.3619 151.995 73.2596C151.98 73.1574 151.926 73.0649 151.845 73.0018C149.88 71.5056 148.035 71.0562 148.035 71.0562C147.934 71.0316 147.828 71.048 147.739 71.1018C147.65 71.1556 147.586 71.2424 147.561 71.3433C147.514 71.5512 147.637 71.7649 147.849 71.8155Z" fill="#000045"/>
<path fill-rule="evenodd" clip-rule="evenodd" d="M149.127 73.9763C149.127 73.9763 149.904 73.1923 150.534 72.8096C150.715 72.6988 150.774 72.4583 150.662 72.2742C150.609 72.1859 150.523 72.1222 150.423 72.0973C150.323 72.0724 150.217 72.0881 150.128 72.1412C149.434 72.5635 148.574 73.4245 148.574 73.4245C148.502 73.4988 148.462 73.5981 148.462 73.7014C148.462 73.8047 148.502 73.9041 148.573 73.9786C148.729 74.1298 148.977 74.1285 149.127 73.9763ZM164.355 73.6983L164.972 76.2899C164.984 76.3401 165.006 76.3874 165.036 76.4291C165.067 76.4708 165.105 76.5061 165.149 76.5329C165.193 76.5598 165.242 76.5776 165.293 76.5854C165.344 76.5932 165.396 76.5909 165.446 76.5785C165.547 76.5539 165.633 76.4907 165.688 76.4025C165.742 76.3144 165.759 76.2084 165.736 76.1076L165.118 73.516C165.106 73.4659 165.084 73.4186 165.054 73.3769C165.024 73.3352 164.985 73.3 164.941 73.2732C164.897 73.2463 164.848 73.2285 164.797 73.2206C164.746 73.2128 164.694 73.2151 164.644 73.2274C164.594 73.2392 164.547 73.2607 164.505 73.2907C164.464 73.3208 164.428 73.3588 164.401 73.4026C164.374 73.4464 164.356 73.495 164.348 73.5458C164.34 73.5966 164.342 73.6484 164.355 73.6983ZM158.226 69.6745C158.226 69.6745 160.384 68.0584 162.432 69.9269C162.51 69.9962 162.612 70.0321 162.716 70.0268C162.821 70.0215 162.919 69.9755 162.99 69.8986C163.059 69.8217 163.095 69.7205 163.09 69.6171C163.085 69.5137 163.04 69.4163 162.964 69.3463C160.424 67.04 157.751 69.0511 157.751 69.0511C157.668 69.1139 157.614 69.2065 157.6 69.3088C157.585 69.4112 157.611 69.5152 157.673 69.5984C157.737 69.681 157.83 69.7353 157.934 69.7495C158.037 69.7638 158.142 69.7368 158.226 69.6745ZM163.918 79.1971C163.918 79.1971 161.36 80.0499 160.007 77.6311C159.954 77.5406 159.869 77.4743 159.768 77.4464C159.667 77.4184 159.559 77.4312 159.468 77.4819C159.378 77.533 159.312 77.6177 159.284 77.7173C159.256 77.817 159.268 77.9237 159.319 78.0143C161.001 81.0039 164.172 79.9387 164.172 79.9387C164.27 79.9049 164.351 79.8342 164.397 79.7416C164.443 79.649 164.451 79.5421 164.419 79.4437C164.385 79.3452 164.313 79.2641 164.219 79.218C164.125 79.1719 164.017 79.1644 163.918 79.1971ZM166.521 69.6745C166.521 69.6745 168.679 68.0587 170.728 69.9269C170.892 70.0698 171.132 70.0602 171.284 69.8989C171.428 69.7398 171.418 69.4924 171.259 69.3465C168.719 67.0402 166.046 69.0511 166.046 69.0511C165.963 69.1139 165.909 69.2065 165.895 69.3088C165.88 69.4112 165.906 69.5152 165.968 69.5984C166.031 69.6811 166.125 69.7354 166.229 69.7496C166.332 69.7639 166.437 69.7369 166.521 69.6745Z" fill="#000045"/>
<path d="M160.476 73.5454C160.942 73.3635 161.173 72.8418 160.992 72.3794C160.812 71.9174 160.289 71.6897 159.823 71.8713C159.358 72.0529 159.126 72.5749 159.307 73.0373C159.487 73.4993 160.011 73.7269 160.476 73.5454ZM168.971 73.5454C169.437 73.3638 169.668 72.8418 169.487 72.3797C169.307 71.9174 168.784 71.69 168.318 71.8716C167.852 72.0532 167.621 72.5752 167.802 73.0373C167.982 73.4996 168.506 73.7269 168.971 73.5454Z" fill="#000045"/>
<path fill-rule="evenodd" clip-rule="evenodd" d="M151.85 68.6862C151.85 68.6862 154.536 84.2852 154.86 83.7748C155.271 83.1112 154.227 67.2812 154.227 67.2812L158.527 66.4826L159.32 61.7175L160.152 66.4843C160.152 66.4843 169.704 66.9846 174.506 67.7373C174.506 67.7373 176.517 53.5841 161.477 52.248C150.617 51.291 139.792 59.7878 146.358 79.9422L150.717 84.6729C152.234 84.357 153.323 83.899 154.557 82.986L154.034 80.6167L153.238 79.5507C153.238 79.5507 152.197 78.0198 151.777 76.0909C151.777 76.0909 147.006 76.6708 146.191 73.2289C144.904 67.7977 151.85 68.6862 151.85 68.6862Z" fill="white"/>
<path fill-rule="evenodd" clip-rule="evenodd" d="M154.338 83.6294C154.409 83.8818 154.502 84.0194 154.559 84.0639C154.666 84.1693 154.781 84.1916 154.882 84.1792C154.984 84.1668 155.101 84.1223 155.192 83.9804C155.226 83.9278 155.285 83.7718 155.302 83.5388C155.346 83.2025 155.35 82.5884 155.343 81.8056C155.289 77.885 154.756 69.4216 154.631 67.6055L158.596 66.8693C158.76 66.846 158.884 66.7185 158.912 66.5481L159.33 64.0306L159.766 66.5531C159.81 66.736 159.953 66.8672 160.131 66.8789C160.131 66.8789 169.655 67.3766 174.443 68.1219C174.542 68.1371 174.65 68.1088 174.734 68.0498C174.817 67.9909 174.873 67.8903 174.888 67.7911C174.888 67.7911 175.905 60.6628 171.203 55.9041C169.188 53.8816 166.134 52.2715 161.504 51.8654C155.945 51.3631 150.394 53.3077 147.065 57.9544C143.769 62.5485 142.659 69.8187 145.99 80.057C146.013 80.1149 146.03 80.1615 146.076 80.2105L150.431 84.9298C150.522 85.028 150.662 85.0808 150.798 85.055C152.19 84.7604 153.222 84.3641 154.338 83.6294ZM154.544 81.1134C154.441 76.4396 153.839 67.3106 153.839 67.3106C153.828 67.2157 153.854 67.1202 153.911 67.0438C153.968 66.9673 154.053 66.9157 154.147 66.8996L158.186 66.148L158.936 61.652C158.971 61.4653 159.13 61.3247 159.319 61.332C159.516 61.3232 159.675 61.4618 159.707 61.6492L160.49 66.1153C162.123 66.2071 169.776 66.651 174.16 67.2848C174.279 65.7881 174.445 60.2916 170.647 56.4643C168.733 54.5356 165.836 53.0244 161.44 52.6355C156.15 52.1762 150.858 53.9954 147.703 58.4021C144.522 62.8455 143.515 69.863 146.708 79.7416L150.856 84.2338C152.123 83.9607 153.072 83.5563 154.121 82.8208C153.988 82.2993 153.838 81.598 153.676 80.7945L153.672 80.7829L152.915 79.7819L152.91 79.7702C152.91 79.7702 151.953 78.3534 151.469 76.5021C150.868 76.533 149.578 76.5357 148.37 76.0942C147.233 75.665 146.173 74.8471 145.814 73.321C145.474 71.8802 145.675 70.8442 146.15 70.103C146.855 68.9932 148.199 68.5041 149.427 68.3389C150.736 68.1424 151.9 68.2947 151.9 68.2947C152.066 68.3109 152.198 68.4467 152.237 68.6179C152.237 68.6179 153.522 76.1268 154.421 80.5487L154.544 81.1134ZM153.301 78.9146C152.567 75.0954 151.729 70.2777 151.509 69.0443C151.114 69.0225 150.357 68.9935 149.536 69.109C148.528 69.2565 147.398 69.6101 146.818 70.5256C146.424 71.1293 146.297 71.977 146.574 73.149C146.938 74.687 148.217 75.3142 149.381 75.5727C150.601 75.8367 151.72 75.7001 151.72 75.7001C151.924 75.6754 152.107 75.8046 152.159 76.011C152.428 77.2659 152.981 78.3585 153.301 78.9146Z" fill="#000045"/>
<path fill-rule="evenodd" clip-rule="evenodd" d="M151.559 90.3558C152.207 97.7802 153.658 117.875 152.382 135.919C146.819 134.728 141.301 132.475 135.892 129.354C135.892 129.354 135.962 101.153 137.229 97.4335C138.154 94.7185 147.255 91.4567 151.559 90.3558ZM171.175 90.7286C174.342 91.6805 179.843 93.486 182.05 95.1163C187.536 99.1674 186.861 128.17 186.861 128.17C182.109 131.62 177.288 133.977 172.445 135.363C173.226 122.808 171.775 99.394 171.175 90.7286Z" fill="#FF7A3D"/>
<path fill-rule="evenodd" clip-rule="evenodd" d="M139.536 95.2031C139.536 95.2031 133.902 98.4312 132.187 103.883C130.471 109.334 129.067 126.081 129.067 126.081L141.402 133.598C141.402 133.598 147.09 103.695 139.536 95.2031Z" fill="#FF7A3D"/>
<path fill-rule="evenodd" clip-rule="evenodd" d="M150.859 85.3785C151.049 85.1989 151.154 84.9478 151.16 84.6777C151.176 84.4175 151.075 84.1726 150.886 83.9736L147.065 79.9404C146.977 79.8456 146.87 79.7692 146.752 79.7157C146.634 79.6623 146.507 79.6327 146.377 79.6288C146.117 79.6301 145.86 79.7219 145.67 79.9015C145.481 80.0813 145.375 80.3327 145.36 80.5927C145.357 80.7223 145.379 80.8512 145.426 80.972C145.474 81.0928 145.544 81.203 145.634 81.2963L149.455 85.3292C149.644 85.5285 149.883 85.6426 150.143 85.6413C150.413 85.6501 150.67 85.5581 150.859 85.3785Z" fill="white"/>
<path fill-rule="evenodd" clip-rule="evenodd" d="M151.123 85.6574C151.391 85.4043 151.555 85.0598 151.557 84.6989C151.567 84.3302 151.425 83.9731 151.17 83.7042L147.349 79.6711C147.098 79.4067 146.752 79.2524 146.387 79.2419C146.027 79.2242 145.673 79.3696 145.406 79.6228C145.139 79.8759 144.983 80.2125 144.973 80.5813C144.964 80.9463 145.099 81.3001 145.349 81.5659L149.17 85.599C149.296 85.7326 149.446 85.8402 149.613 85.9156C149.78 85.991 149.96 86.0328 150.143 86.0386C150.512 86.0479 150.856 85.9106 151.123 85.6574ZM150.586 85.0899C150.529 85.1455 150.461 85.1887 150.386 85.217C150.312 85.2453 150.232 85.258 150.153 85.2543C150 85.2482 149.853 85.1795 149.739 85.0598L145.918 81.0269C145.813 80.9152 145.755 80.7672 145.756 80.6137C145.757 80.4424 145.832 80.2968 145.944 80.1905C146.065 80.0762 146.206 80.0178 146.377 80.0259C146.53 80.032 146.685 80.0924 146.789 80.2019L150.61 84.2351C150.723 84.3545 150.776 84.5133 150.773 84.6666C150.772 84.8378 150.707 84.9756 150.586 85.0899Z" fill="#000045"/>
<path fill-rule="evenodd" clip-rule="evenodd" d="M169.683 85.4405C169.491 85.2634 169.382 85.0138 169.373 84.7437C169.354 84.484 169.451 84.2376 169.637 84.0358C170.614 82.9766 172.417 81.0193 173.401 79.9498C173.578 79.7581 173.816 79.6412 174.084 79.6288C174.344 79.6263 174.602 79.7143 174.794 79.8913C174.987 80.0684 175.095 80.3183 175.116 80.5783C175.121 80.7079 175.1 80.8371 175.054 80.9586C175.008 81.08 174.939 81.1911 174.85 81.2854C173.866 82.355 172.063 84.3122 171.087 85.3714C170.9 85.5732 170.664 85.6908 170.404 85.6934C170.133 85.7058 169.876 85.6175 169.683 85.4405Z" fill="white"/>
<path fill-rule="evenodd" clip-rule="evenodd" d="M169.423 85.723C169.694 85.9723 170.04 86.1048 170.409 86.0902C170.592 86.082 170.771 86.0378 170.937 85.9601C171.103 85.8823 171.252 85.7726 171.375 85.6372C172.351 84.5778 174.155 82.6205 175.138 81.5512C175.386 81.2823 175.517 80.9264 175.503 80.5613C175.487 80.1928 175.326 79.8582 175.055 79.6088C174.784 79.3595 174.43 79.2191 174.069 79.2419C173.704 79.2581 173.361 79.4171 173.113 79.6845C172.129 80.7538 170.326 82.711 169.349 83.7705C169.224 83.9045 169.127 84.0619 169.063 84.2335C168.999 84.4052 168.97 84.5877 168.976 84.7708C168.983 85.1314 169.152 85.4736 169.423 85.723ZM169.953 85.1478C169.831 85.0353 169.763 84.8985 169.759 84.727C169.753 84.5675 169.81 84.4121 169.917 84.2935C170.892 83.2341 172.695 81.2768 173.682 80.2075C173.783 80.0965 173.937 80.0337 174.091 80.0254C174.261 80.015 174.402 80.0717 174.526 80.1842C174.64 80.2889 174.716 80.4336 174.719 80.6048C174.724 80.7578 174.665 80.9091 174.562 81.0201L170.798 85.1061C170.687 85.2273 170.541 85.2981 170.389 85.3064C170.309 85.3112 170.229 85.2995 170.154 85.2723C170.079 85.245 170.011 85.2026 169.953 85.1478Z" fill="#000045"/>
<path fill-rule="evenodd" clip-rule="evenodd" d="M140.834 130.861C140.834 130.861 141.407 117.93 141.611 107.417L143.579 132.126L140.834 130.861ZM179.534 102.008C179.534 102.008 178.439 101.926 178.507 102.71C178.575 103.493 178.694 104.351 178.694 104.351C178.694 104.351 177.834 104.686 177.602 106.403C177.361 108.17 180.399 119.604 183.677 129.946L188.196 128.039L179.534 102.008Z" fill="#CC3D00"/>
<path fill-rule="evenodd" clip-rule="evenodd" d="M180.267 102.007C180.267 102.007 179.129 100.155 178.527 99.653C177.928 99.1512 175.209 95.9196 174.443 94.0718C173.677 92.2238 171.833 89.1873 171.691 88.5917C171.55 87.9961 173.317 87.5457 174.443 90.1317L176.277 91.9484C176.277 91.9484 174.193 85.8805 173.401 83.572C173.362 83.4571 173.346 83.3357 173.353 83.2146C173.361 83.0936 173.393 82.9752 173.446 82.8663C173.5 82.7573 173.575 82.6601 173.667 82.5802C173.758 82.5003 173.865 82.4394 173.98 82.401C174.171 82.3369 174.379 82.343 174.566 82.4182C174.754 82.4933 174.908 82.6327 175.002 82.8112C175.945 84.5917 178.527 89.4787 178.527 89.4787C178.527 89.4787 177.455 84.5793 177.007 82.5236C176.955 82.2849 176.997 82.0351 177.126 81.827C177.254 81.619 177.458 81.469 177.695 81.4088C178.168 81.2899 178.651 81.5489 178.813 82.008L181.234 88.8768C181.234 88.8768 181.089 83.8011 181.029 81.6802C181.026 81.5614 181.047 81.4433 181.091 81.3327C181.134 81.2222 181.199 81.1212 181.282 81.0358C181.365 80.9508 181.464 80.8832 181.573 80.837C181.683 80.7908 181.8 80.767 181.919 80.7669C182.367 80.7669 182.743 81.1058 182.786 81.5525C182.989 83.5356 183.497 88.5917 183.497 88.5917C183.497 88.5917 184.279 84.0823 184.605 82.2083C184.641 81.9937 184.761 81.802 184.937 81.6745C185.114 81.5469 185.333 81.4938 185.548 81.5264C185.746 81.5557 185.926 81.6567 186.054 81.8101C186.183 81.9635 186.25 82.1587 186.244 82.3585C186.186 84.3026 186.024 89.4787 186.024 89.4787C186.024 89.4787 187.291 93.1434 186.266 98.2805V100.291L180.267 102.007Z" fill="white"/>
<path fill-rule="evenodd" clip-rule="evenodd" d="M179.934 102.212C180.027 102.36 180.207 102.43 180.376 102.383L186.375 100.666C186.457 100.643 186.528 100.594 186.58 100.526C186.631 100.458 186.658 100.376 186.659 100.291V98.3194C187.609 93.5037 186.585 89.9615 186.416 89.4223L186.636 82.3709C186.645 82.0752 186.545 81.7865 186.355 81.5595C186.165 81.3326 185.899 81.1832 185.606 81.1397C185.29 81.0924 184.968 81.1707 184.708 81.358C184.449 81.5452 184.273 81.8265 184.218 82.1417L183.598 85.7113L183.176 81.5125C183.144 81.2012 182.998 80.9126 182.766 80.7028C182.534 80.4929 182.232 80.3766 181.919 80.3764C181.572 80.3764 181.241 80.5153 181.001 80.7644C180.761 81.0107 180.629 81.3461 180.639 81.6916L180.771 86.3896L179.182 81.878C179.072 81.5645 178.848 81.3037 178.555 81.1467C178.262 80.9897 177.921 80.948 177.599 81.0297C177.264 81.1148 176.975 81.327 176.793 81.6214C176.611 81.9159 176.551 82.2694 176.626 82.6074L177.534 86.7599L175.348 82.6273C175.211 82.3669 174.985 82.1638 174.712 82.0542C174.439 81.9447 174.135 81.9358 173.856 82.0292C173.692 82.0843 173.54 82.1712 173.41 82.285C173.279 82.3988 173.172 82.5372 173.095 82.6923C173.019 82.8477 172.974 83.0167 172.963 83.1896C172.952 83.3624 172.975 83.5357 173.032 83.6994L175.366 90.4946L174.769 89.9053C173.854 87.8633 172.516 87.6006 171.891 87.8009C171.428 87.9511 171.226 88.3239 171.312 88.683C171.454 89.2834 173.307 92.355 174.081 94.2218C174.868 96.1199 177.66 99.4378 178.28 99.9532C178.856 100.434 179.934 102.212 179.934 102.212ZM180.442 101.55C180.095 101.01 179.266 99.7595 178.778 99.3528C178.194 98.8637 175.551 95.7195 174.805 93.9216C174.069 92.1499 172.329 89.2799 172.091 88.5654C172.111 88.554 172.139 88.5427 172.162 88.5366C172.258 88.5153 172.372 88.5176 172.501 88.549C172.994 88.6678 173.593 89.1608 174.084 90.287C174.104 90.3333 174.132 90.3745 174.167 90.4094L176.003 92.2263C176.132 92.3538 176.332 92.3763 176.486 92.2799C176.641 92.1823 176.706 91.9934 176.648 91.8209C176.648 91.8209 174.564 85.7538 173.77 83.4455C173.725 83.3118 173.734 83.1659 173.795 83.0388C173.859 82.9126 173.97 82.8163 174.104 82.7712C174.208 82.7369 174.32 82.7403 174.421 82.7809C174.523 82.8214 174.607 82.8965 174.658 82.9928C175.599 84.7743 178.183 89.6613 178.183 89.6613C178.275 89.8353 178.479 89.9139 178.664 89.8464C178.752 89.8132 178.826 89.7495 178.872 89.6666C178.917 89.5838 178.931 89.4874 178.912 89.395C178.912 89.395 177.837 84.4966 177.389 82.4409C177.359 82.3012 177.383 82.1549 177.458 82.033C177.533 81.9111 177.653 81.8232 177.791 81.7877C177.925 81.7543 178.066 81.7716 178.187 81.8364C178.308 81.9012 178.4 82.0088 178.447 82.1382C179.139 84.1112 180.864 89.007 180.864 89.007C180.928 89.1883 181.115 89.2961 181.304 89.2609C181.396 89.2435 181.478 89.1942 181.536 89.1218C181.595 89.0494 181.625 88.9586 181.623 88.8656L181.421 81.6703C181.418 81.535 181.469 81.405 181.562 81.3087C181.656 81.2123 181.785 81.1584 181.919 81.1584C182.167 81.1584 182.374 81.3448 182.399 81.5914L183.108 88.6317C183.128 88.8254 183.287 88.9756 183.482 88.9832C183.679 88.9896 183.849 88.8507 183.882 88.6593L184.989 82.2745C185.009 82.1607 185.072 82.059 185.166 81.9914C185.259 81.9238 185.376 81.8956 185.49 81.9129C185.705 81.9442 185.859 82.1306 185.854 82.3471L185.632 89.4675C185.632 89.5151 185.637 89.5611 185.654 89.6062C185.654 89.6062 186.884 93.1871 185.882 98.2041C185.877 98.2291 185.874 98.2554 185.874 98.2805V99.9957L180.442 101.55Z" fill="#000045"/>
<path fill-rule="evenodd" clip-rule="evenodd" d="M179.215 102.417C179.188 102.228 179.221 102.036 179.309 101.867C179.398 101.698 179.538 101.562 179.709 101.477C181.087 100.794 184.534 99.0986 186.335 98.3955C186.55 98.3299 186.783 98.3475 186.986 98.4448C187.189 98.5421 187.348 98.712 187.432 98.9211C187.865 99.9932 188.578 101.772 188.578 101.772C188.578 101.772 189.921 101.983 190.295 102.671C190.667 103.358 197.883 118.29 197.883 118.29L193.464 128.461L186.148 130.583C185.735 132.009 178.421 109.446 178.51 106.279C178.545 104.922 179.524 104.521 179.524 104.521C179.524 104.521 179.334 103.23 179.215 102.417Z" fill="#FF7A3D"/>
<path fill-rule="evenodd" clip-rule="evenodd" d="M177.845 93.9104C177.845 93.9104 180.247 94.3095 181.76 96.1249C181.899 96.2913 182.136 96.3151 182.311 96.1763C182.389 96.1095 182.439 96.0146 182.448 95.9119C182.458 95.8093 182.427 95.707 182.362 95.6269C180.672 93.59 177.981 93.1396 177.981 93.1396C177.769 93.1034 177.556 93.2473 177.531 93.4613C177.493 93.674 177.632 93.8753 177.845 93.9104Z" fill="#000045"/>
<path fill-rule="evenodd" clip-rule="evenodd" d="M93.2627 23.7182L113.045 43.9806C113.117 44.0549 113.216 44.0974 113.32 44.0988C113.423 44.1002 113.523 44.0605 113.598 43.9882C113.672 43.9157 113.714 43.8167 113.716 43.713C113.717 43.6093 113.677 43.5093 113.604 43.4351L93.8224 23.1714C93.7498 23.0975 93.6508 23.0553 93.5472 23.0542C93.4435 23.053 93.3436 23.0929 93.2693 23.1651C93.1952 23.2376 93.1528 23.3366 93.1516 23.4403C93.1504 23.544 93.1904 23.6439 93.2627 23.7182ZM130.472 12.0674L134.791 30.1755C134.815 30.2763 134.878 30.3634 134.966 30.4177C135.055 30.4719 135.161 30.4889 135.262 30.4648C135.362 30.4404 135.449 30.3772 135.503 30.2891C135.558 30.201 135.575 30.095 135.551 29.9942L131.232 11.886C131.208 11.7853 131.145 11.6983 131.057 11.644C130.968 11.5897 130.862 11.5726 130.761 11.5965C130.661 11.6209 130.574 11.6841 130.519 11.7723C130.465 11.8605 130.448 11.9666 130.472 12.0674ZM81.7687 63.3966L101.535 65.2448C101.586 65.2496 101.638 65.2443 101.687 65.2291C101.736 65.214 101.781 65.1894 101.821 65.1566C101.86 65.1239 101.893 65.0836 101.917 65.0383C101.941 64.9929 101.956 64.9432 101.96 64.8921C101.965 64.841 101.96 64.7895 101.945 64.7405C101.93 64.6914 101.905 64.6459 101.872 64.6063C101.839 64.5668 101.799 64.5341 101.754 64.5102C101.709 64.4862 101.659 64.4714 101.608 64.4666L81.8416 62.6183C81.7384 62.6087 81.6356 62.6404 81.5558 62.7066C81.476 62.7727 81.4257 62.8678 81.416 62.971C81.4064 63.0742 81.4381 63.177 81.5042 63.2568C81.5704 63.3366 81.6655 63.3869 81.7687 63.3966Z" fill="#FF7A3D"/>
<path fill-rule="evenodd" clip-rule="evenodd" d="M82.8089 207.253C81.0396 207.253 79.6028 208.689 79.6028 210.457C79.6028 212.227 81.0396 213.664 82.8089 213.664C84.5785 213.664 86.0153 212.227 86.0153 210.457C86.0153 208.689 84.5785 207.253 82.8089 207.253ZM82.8089 208.034C84.1471 208.034 85.2333 209.119 85.2333 210.457C85.2333 211.798 84.1471 212.883 82.8089 212.883C81.471 212.883 80.3848 211.798 80.3848 210.457C80.3848 209.119 81.471 208.034 82.8089 208.034Z" fill="#AB3DFF"/>
<path fill-rule="evenodd" clip-rule="evenodd" d="M214.762 43.3159C213.065 43.3159 211.689 44.6936 211.689 46.3891C211.689 48.0856 213.065 49.4617 214.762 49.4617C216.459 49.4617 217.835 48.0856 217.835 46.3891C217.835 44.6936 216.459 43.3159 214.762 43.3159ZM214.762 44.0979C216.026 44.0979 217.053 45.1253 217.053 46.3891C217.053 47.6539 216.026 48.6797 214.762 48.6797C213.497 48.6797 212.471 47.6539 212.471 46.3891C212.471 45.1253 213.497 44.0979 214.762 44.0979Z" fill="#FF3D3D"/>
<path fill-rule="evenodd" clip-rule="evenodd" d="M261.573 56.577L241.178 68.7653C241.09 68.8189 241.026 68.9054 241 69.0061C240.975 69.1067 240.991 69.2132 241.044 69.3022C241.153 69.4874 241.393 69.5481 241.578 69.437L261.975 57.2488C262.16 57.138 262.221 56.8982 262.109 56.7131C262.083 56.6688 262.048 56.6302 262.007 56.5993C261.966 56.5685 261.919 56.5461 261.869 56.5335C261.82 56.5208 261.768 56.5182 261.717 56.5256C261.666 56.5331 261.617 56.5506 261.573 56.577Z" fill="#AB3DFF"/>
<path fill-rule="evenodd" clip-rule="evenodd" d="M134.159 209.926L158.758 222.291C158.951 222.389 159.186 222.308 159.283 222.119C159.38 221.924 159.302 221.689 159.109 221.593L134.51 209.228C134.417 209.182 134.31 209.174 134.212 209.207C134.113 209.24 134.032 209.31 133.985 209.402C133.887 209.595 133.966 209.83 134.159 209.926Z" fill="#3D61FF"/>
<path fill-rule="evenodd" clip-rule="evenodd" d="M175.568 198.274C175.568 198.274 193.818 201.403 201.527 201.325C209.233 201.249 222.496 201.325 222.496 201.325L231.555 184.812L190.604 156.539L179.084 165.609L175.568 198.274Z" fill="#FFC8A3"/>
<path fill-rule="evenodd" clip-rule="evenodd" d="M196.613 170.831C196.613 170.831 202.923 187.5 197.893 196.484L184.87 171.517L187.491 164.792L190.654 165.523L196.613 170.831Z" fill="#E89B68"/>
<path fill-rule="evenodd" clip-rule="evenodd" d="M182.142 133.76L167.236 137.753L185.366 205.419C186.469 209.534 190.7 211.977 194.815 210.874C198.932 209.772 201.375 205.541 200.273 201.423L182.142 133.76Z" fill="#3D61FF"/>
<path fill-rule="evenodd" clip-rule="evenodd" d="M175.063 188.418C175.063 188.418 170.996 188.166 169.038 190.702C166.65 193.798 169.118 197.69 172.141 198.889C175.824 200.351 187.207 199.569 189.815 197.994C192.728 196.236 192.766 192.991 191.454 191.567C189.8 188.707 181.203 188.55 175.063 188.418Z" fill="#FFC8A3"/>
<path fill-rule="evenodd" clip-rule="evenodd" d="M169.607 190.1C172.721 190.958 183.798 193.689 191.53 191.661L191.454 191.567C189.8 188.704 181.206 188.55 175.063 188.421C175.063 188.421 171.681 188.209 169.607 190.1Z" fill="#E89B68"/>
<path fill-rule="evenodd" clip-rule="evenodd" d="M174.349 177.505C174.349 177.505 169.66 176.347 166.838 178.891C163.397 181.995 165.038 187.779 168.722 189.096C172.407 190.417 186.737 192.078 190.045 191.259C193.351 190.437 194.028 186.593 192.799 184.653C191.476 180.963 181.484 178.957 174.349 177.505Z" fill="#FFC8A3"/>
<path fill-rule="evenodd" clip-rule="evenodd" d="M167.403 178.446C170.487 179.83 179.319 183.204 190.859 182.498C187.314 180.128 179.951 178.646 174.349 177.505C174.349 177.505 170.242 176.491 167.403 178.446Z" fill="#E89B68"/>
<path fill-rule="evenodd" clip-rule="evenodd" d="M161.389 36.5096C190.751 36.5096 214.587 60.3467 214.587 89.7063C214.587 119.067 190.751 142.905 161.389 142.905C132.029 142.905 108.192 119.067 108.192 89.7063C108.192 60.3467 132.029 36.5096 161.389 36.5096ZM161.389 43.7087C186.777 43.7087 207.387 64.3192 207.387 89.7063C207.387 115.095 186.777 135.707 161.389 135.707C136.002 135.707 115.39 115.095 115.39 89.7063C115.39 64.3192 136.002 43.7087 161.389 43.7087Z" fill="#3D61FF"/>
<path fill-rule="evenodd" clip-rule="evenodd" d="M174.42 164.984C174.42 164.984 169.429 163.125 166.019 165.558C161.86 168.525 162.93 175.065 166.799 176.972C170.669 178.879 186.155 182.503 189.878 182.02C193.603 181.537 194.827 177.409 193.727 175.131C192.741 170.925 182.05 167.472 174.42 164.984Z" fill="#FFC8A3"/>
<path fill-rule="evenodd" clip-rule="evenodd" d="M166.215 165.429C168.985 167.005 177.771 171.36 189.038 170.646C185.002 168.423 179.127 166.522 174.42 164.984C174.42 164.984 169.614 163.196 166.215 165.429Z" fill="#E89B68"/>
<path fill-rule="evenodd" clip-rule="evenodd" d="M174.187 152.637C174.187 152.637 169.671 150.441 166.349 152.637C162.296 155.313 162.875 161.908 166.349 164.076C169.822 166.243 182.721 170.075 186.211 169.847C189.704 169.62 192.357 166.425 191.479 164.076C190.832 159.812 181.12 155.639 174.187 152.637Z" fill="#FFC8A3"/>
<path fill-rule="evenodd" clip-rule="evenodd" d="M191.084 166.929V166.934C191.084 166.934 193.968 168.957 196.922 171.365L197.893 168.896L192.579 163.403L191.593 164.47C191.565 164.336 191.527 164.205 191.479 164.076C190.832 159.812 181.12 155.639 174.187 152.637C174.187 152.637 173.216 152.164 171.846 151.881C172.804 152.968 177.379 157.791 184.683 159.83C184.683 159.83 187.417 163.249 191.082 166.934L191.084 166.929Z" fill="#E89B68"/>
<path fill-rule="evenodd" clip-rule="evenodd" d="M230.7 171.104C230.7 171.104 204.633 154.738 199.064 150.882C199.064 150.882 180.366 144.281 172.979 140.952C172.979 140.952 163.614 150.257 185.07 158.616L196.696 171.059C196.696 171.059 198.029 178.343 204.656 184.918L224.737 202.081L230.7 171.104Z" fill="#FFC8A3"/>
<path fill-rule="evenodd" clip-rule="evenodd" d="M227.888 169.387C230.672 179.086 226.527 195.743 218.621 201.33H217.382C217.382 201.33 216.859 204.233 218.353 205.004C219.85 205.781 238.093 211.143 238.093 211.143C238.093 211.143 239.347 214.322 244.274 216.393C249.203 218.464 272.345 224.339 272.345 224.339C282.279 209.299 285.731 195.014 283.242 175.712C283.242 175.712 253.89 169.784 251.232 170.06C248.571 170.338 248.374 171.6 248.374 171.6C248.374 171.6 230.951 166.385 229.264 166.59C227.577 166.795 226.558 168.469 226.558 168.469L227.888 169.387Z" fill="#FF7A3D"/>
<path fill-rule="evenodd" clip-rule="evenodd" d="M233.586 209.8C241.019 200.811 243.945 194.86 247.243 186.276C245.627 195.454 242.658 203.788 238.103 211.137L233.586 209.8Z" fill="#CC3D00"/>
</svg>
