<svg width="94" height="135" viewBox="0 0 94 135" fill="none" xmlns="http://www.w3.org/2000/svg">
<path d="M8.59595 126.327C6.74384 126.327 5.10963 126.153 3.69332 125.804C2.29879 125.455 1.28558 125.118 0.653684 124.791L1.30737 120.444V119.463C1.69958 119.921 2.23342 120.411 2.90889 120.934C3.58437 121.435 4.3579 121.86 5.22947 122.209C6.12284 122.557 7.0489 122.732 8.00763 122.732C8.96637 122.732 9.68542 122.459 10.1648 121.914C10.6659 121.37 10.9165 120.444 10.9165 119.136V108.351C10.9165 107.653 10.8403 107.163 10.6877 106.88C10.5352 106.575 10.3827 106.411 10.2302 106.389H16.6363C16.4837 106.389 16.3312 106.542 16.1787 106.847C16.0262 107.152 15.9499 107.664 15.9499 108.383V119.136C15.9499 121.054 15.6448 122.535 15.0347 123.581C14.4464 124.605 13.5966 125.325 12.4854 125.739C11.3959 126.131 10.0994 126.327 8.59595 126.327ZM27.4149 126.327C25.236 126.327 23.5255 125.978 22.2835 125.281C21.0633 124.584 20.2026 123.636 19.7014 122.437C19.2221 121.239 18.9824 119.888 18.9824 118.385C18.9824 116.859 19.233 115.497 19.7341 114.299C20.2571 113.101 21.1286 112.153 22.3489 111.456C23.5691 110.736 25.2577 110.377 27.4149 110.377C29.5721 110.377 31.2607 110.736 32.481 111.456C33.7012 112.153 34.5619 113.101 35.063 114.299C35.586 115.497 35.8474 116.859 35.8474 118.385C35.8474 119.888 35.5969 121.239 35.0957 122.437C34.6163 123.636 33.7665 124.584 32.5463 125.281C31.3261 125.978 29.6156 126.327 27.4149 126.327ZM27.4149 123.026C28.3301 123.026 29.06 122.895 29.6047 122.634C30.1713 122.35 30.5744 121.871 30.8141 121.195C31.0755 120.52 31.2063 119.583 31.2063 118.385C31.2063 117.186 31.0755 116.249 30.8141 115.574C30.5744 114.876 30.1713 114.386 29.6047 114.103C29.06 113.798 28.3301 113.645 27.4149 113.645C26.4997 113.645 25.7589 113.798 25.1924 114.103C24.6476 114.408 24.2445 114.909 23.9831 115.606C23.7434 116.304 23.6235 117.241 23.6235 118.417C23.6235 119.572 23.7434 120.487 23.9831 121.163C24.2445 121.838 24.6476 122.318 25.1924 122.601C25.7589 122.884 26.4997 123.026 27.4149 123.026ZM47.6847 126.327C46.8349 126.327 46.0396 126.218 45.2988 126C44.5797 125.804 44.0023 125.51 43.5665 125.118L43.5012 125.183L43.5665 125.804V126H38.2717C38.4242 126 38.5658 125.847 38.6966 125.542C38.8491 125.237 38.9254 124.736 38.9254 124.039V105.409C38.9254 104.712 38.8491 104.221 38.6966 103.938C38.5658 103.633 38.4242 103.47 38.2717 103.448H43.5665V110.965L43.5012 111.586L43.5665 111.619C43.7844 111.423 44.1004 111.238 44.5144 111.063C44.9502 110.867 45.4404 110.704 45.9852 110.573C46.5517 110.442 47.1182 110.377 47.6847 110.377C49.7112 110.377 51.28 110.736 52.3913 111.456C53.5243 112.153 54.3196 113.101 54.7772 114.299C55.2348 115.497 55.4636 116.859 55.4636 118.385C55.4636 119.888 55.2348 121.239 54.7772 122.437C54.3414 123.636 53.557 124.584 52.4239 125.281C51.3127 125.978 49.7329 126.327 47.6847 126.327ZM47.031 123.026C47.9462 123.026 48.6762 122.895 49.2209 122.634C49.7874 122.35 50.1905 121.871 50.4302 121.195C50.6917 120.52 50.8224 119.583 50.8224 118.385C50.8224 117.186 50.6917 116.249 50.4302 115.574C50.1905 114.876 49.7874 114.386 49.2209 114.103C48.6762 113.798 47.9462 113.645 47.031 113.645C46.312 113.645 45.691 113.82 45.168 114.168C44.6451 114.495 44.242 115.007 43.9587 115.704C43.6973 116.402 43.5665 117.306 43.5665 118.417C43.5665 120.117 43.8716 121.315 44.4817 122.013C45.1136 122.688 45.9634 123.026 47.031 123.026ZM66.302 126.327C64.5806 126.327 63.1425 126.153 61.9877 125.804C60.8546 125.433 59.9503 124.911 59.2749 124.235C58.5994 123.538 58.12 122.699 57.8368 121.718C57.5535 120.738 57.4119 119.627 57.4119 118.385C57.4119 115.922 58.0982 113.972 59.471 112.534C60.8437 111.096 62.9464 110.377 65.779 110.377C67.435 110.377 68.7751 110.606 69.7992 111.063C70.8451 111.521 71.6404 112.131 72.1851 112.894C72.7299 113.656 73.1003 114.506 73.2964 115.443C73.5143 116.358 73.6232 117.284 73.6232 118.221V119.757C73.6232 119.692 73.3182 119.627 72.7081 119.561C72.1198 119.474 71.1174 119.43 69.7011 119.43H62.1184C62.1184 120.629 62.4779 121.533 63.197 122.143C63.9378 122.732 65.1362 123.026 66.7922 123.026C68.1868 123.026 69.4288 122.862 70.5182 122.535C71.6295 122.187 72.4357 121.86 72.9369 121.555V122.535L73.2637 125.019C72.8497 125.303 72.0544 125.597 70.8778 125.902C69.7011 126.185 68.1759 126.327 66.302 126.327ZM63.3277 116.62H68.9821C68.9821 116.14 68.8731 115.672 68.6552 115.214C68.4591 114.757 68.1323 114.386 67.6747 114.103C67.2171 113.798 66.5852 113.645 65.779 113.645C64.9728 113.645 64.3191 113.765 63.818 114.005C63.3386 114.245 62.9791 114.539 62.7394 114.887C62.5215 115.236 62.4125 115.596 62.4125 115.966C62.4125 116.184 62.4779 116.347 62.6087 116.456C62.7394 116.565 62.9791 116.62 63.3277 116.62ZM84.8145 126.327C83.0931 126.327 81.655 126.153 80.5002 125.804C79.3671 125.433 78.4629 124.911 77.7874 124.235C77.1119 123.538 76.6326 122.699 76.3493 121.718C76.066 120.738 75.9244 119.627 75.9244 118.385C75.9244 115.922 76.6108 113.972 77.9835 112.534C79.3562 111.096 81.4589 110.377 84.2916 110.377C85.9476 110.377 87.2876 110.606 88.3117 111.063C89.3576 111.521 90.1529 112.131 90.6977 112.894C91.2424 113.656 91.6128 114.506 91.8089 115.443C92.0268 116.358 92.1358 117.284 92.1358 118.221V119.757C92.1358 119.692 91.8307 119.627 91.2206 119.561C90.6323 119.474 89.63 119.43 88.2137 119.43H80.6309C80.6309 120.629 80.9905 121.533 81.7095 122.143C82.4504 122.732 83.6488 123.026 85.3048 123.026C86.6993 123.026 87.9413 122.862 89.0308 122.535C90.142 122.187 90.9482 121.86 91.4494 121.555V122.535L91.7762 125.019C91.3622 125.303 90.5669 125.597 89.3903 125.902C88.2137 126.185 86.6884 126.327 84.8145 126.327ZM81.8402 116.62H87.4946C87.4946 116.14 87.3857 115.672 87.1678 115.214C86.9717 114.757 86.6448 114.386 86.1872 114.103C85.7297 113.798 85.0978 113.645 84.2916 113.645C83.4854 113.645 82.8317 113.765 82.3305 114.005C81.8511 114.245 81.4916 114.539 81.2519 114.887C81.034 115.236 80.9251 115.596 80.9251 115.966C80.9251 116.184 80.9905 116.347 81.1212 116.456C81.2519 116.565 81.4916 116.62 81.8402 116.62Z" fill="#6C83F3"/>
<path fill-rule="evenodd" clip-rule="evenodd" d="M59.9403 11.633C59.9403 18.0578 54.8083 23.2661 48.4776 23.2661C42.1469 23.2661 37.0149 18.0578 37.0149 11.633C37.0149 5.20829 42.1469 0 48.4776 0C54.8083 0 59.9403 5.20829 59.9403 11.633ZM59.9403 45.078C59.9403 54.4475 54.8083 62.0429 48.4776 62.0429C42.1469 62.0429 37.0149 54.4475 37.0149 45.078C37.0149 35.7086 42.1469 28.1132 48.4776 28.1132C54.8083 28.1132 59.9403 35.7086 59.9403 45.078ZM25.4213 24.5114C26.1187 23.8067 27.2597 23.8761 27.9134 24.6215C31.1147 28.2717 30.5734 33.7999 28.527 38.2027C27.9266 39.4945 27.4495 40.8493 27.1063 42.2492C26.0595 46.5197 26.3076 51.0114 27.8182 55.1364C29.3288 59.2614 32.0315 62.8274 35.5724 65.3675C39.1133 67.9076 43.3275 69.3035 47.6632 69.3723C51.9989 69.4411 56.2541 68.1798 59.8716 65.7533C63.4891 63.3269 66.3004 59.8484 67.9374 55.7734C69.5744 51.6984 69.9608 47.2167 69.0461 42.915C68.7456 41.5023 68.3095 40.1306 67.7476 38.8181C65.8379 34.3567 65.4703 28.8173 68.7826 25.2705C69.459 24.5462 70.6012 24.5125 71.276 25.2383C75.2732 29.538 78.0464 34.873 79.2799 40.6736C80.6394 47.067 80.0651 53.728 77.6321 59.7845C75.1991 65.8411 71.0208 71.0109 65.6442 74.6173C60.2677 78.2236 53.9434 80.0983 47.4995 79.996C41.0555 79.8937 34.7921 77.8191 29.5294 74.0439C24.2666 70.2687 20.2497 64.9687 18.0045 58.8379C15.7594 52.707 15.3907 46.0311 16.9466 39.684C18.3581 33.9259 21.2941 28.6818 25.4213 24.5114Z" fill="#6C83F3"/>
</svg>
